<?xml version="1.0" encoding="utf-8"?>
<!-- Generator: Adobe Illustrator 16.0.0, SVG Export Plug-In . SVG Version: 6.00 Build 0)  -->
<!DOCTYPE svg PUBLIC "-//W3C//DTD SVG 1.1//EN" "http://www.w3.org/Graphics/SVG/1.1/DTD/svg11.dtd">
<svg version="1.1" id="Layer_1" xmlns="http://www.w3.org/2000/svg" xmlns:xlink="http://www.w3.org/1999/xlink" x="0px" y="0px"
	 width="248.167px" height="65.167px" viewBox="0 0 248.167 65.167" enable-background="new 0 0 248.167 65.167"
	 xml:space="preserve">
<linearGradient id="SVGID_1_" gradientUnits="userSpaceOnUse" x1="-157.9761" y1="143.3286" x2="71.2031" y2="143.3286" gradientTransform="matrix(1 0 0 -1 174.2749 187.7217)">
	<stop  offset="0" style="stop-color:#E21937"/>
	<stop  offset="0.15" style="stop-color:#E21937"/>
	<stop  offset="0.65" style="stop-color:#804082"/>
	<stop  offset="1" style="stop-color:#004990"/>
</linearGradient>
<path fill="url(#SVGID_1_)" d="M30.78,39.341h4.299l0.59-3.78h-4.298L30.78,39.341z M39.556,48.126h5.41l0.747-4.762h-5.41
	L39.556,48.126z M26.215,48.768h4.297l0.594-3.78h-4.298L26.215,48.768z M67.368,27.898H61.3l-0.836,5.339h6.068L67.368,27.898z
	 M55.284,46.923h6.583l0.908-5.793h-6.584L55.284,46.923z M48.813,57.18h5.712l0.787-5.024h-5.711L48.813,57.18z M51.954,31.088
	H46.24l-0.786,5.027h5.711L51.954,31.088z M16.299,43.794h2.333l0.321-2.053h-2.331L16.299,43.794z M69.708,39.738l-1.319,8.42
	h4.824l-0.75,4.659h-5.6l-1.475,9.423h11.201l0.603-3.848h5.628l-0.576,3.679h10.375l0.576-3.679h2.779l-0.57,3.643h12.269
	l0.571-3.643h3.742l-0.57,3.643h134.062V26.75H116.94l-0.57,3.643h-3.745l0.57-3.643H100.93l-0.571,3.643h-2.778l0.576-3.678H87.78
	l-0.576,3.678h-6.561l0.602-3.847h-8.396l-1.475,9.422h3.65l-0.641,3.769"/>
<g>
	<defs>
		<rect id="SVGID_2_" x="72.17" y="30.751" width="165.36" height="28.56"/>
	</defs>
	<clipPath id="SVGID_3_">
		<use xlink:href="#SVGID_2_"  overflow="visible"/>
	</clipPath>
</g>
<polygon fill="#005A9A" points="2.71,26.743 4.819,25.787 9.295,29.98 9.314,23.75 11.43,22.792 11.369,36.362 9.236,37.328 
	9.287,32.938 "/>
<path fill="#005A9A" d="M16.882,20.466c0.797-0.301,1.622-0.384,2.474-0.25c0.852,0.134,1.604,0.469,2.255,1.004
	c0.651,0.535,1.126,1.199,1.425,1.991c0.301,0.797,0.384,1.617,0.25,2.461c-0.135,0.843-0.47,1.589-1.006,2.237
	c-0.536,0.649-1.216,1.129-2.039,1.439c-1.212,0.457-2.409,0.416-3.591-0.123c-1.182-0.538-2.005-1.424-2.47-2.656
	c-0.498-1.321-0.429-2.603,0.208-3.849C14.948,21.634,15.779,20.882,16.882,20.466 M17.67,22.449
	c-0.659,0.249-1.121,0.685-1.386,1.308c-0.266,0.624-0.264,1.293,0.006,2.007c0.277,0.735,0.718,1.249,1.323,1.541
	c0.605,0.293,1.239,0.314,1.903,0.063c0.664-0.25,1.13-0.689,1.397-1.316c0.267-0.627,0.264-1.303-0.01-2.028
	c-0.273-0.725-0.712-1.232-1.316-1.522C18.983,22.213,18.344,22.195,17.67,22.449"/>
<path fill="#005A9A" d="M23.496,18.311l2.185-0.69l1.31,4.147c0.255,0.808,0.488,1.351,0.698,1.629
	c0.21,0.28,0.466,0.467,0.767,0.563c0.301,0.097,0.631,0.088,0.991-0.025c0.36-0.114,0.638-0.296,0.835-0.547
	c0.197-0.251,0.304-0.562,0.32-0.932c0.012-0.277-0.11-0.822-0.367-1.634l-1.333-4.219l2.161-0.683l1.153,3.649
	c0.475,1.504,0.681,2.571,0.619,3.2c-0.077,0.767-0.341,1.42-0.791,1.96c-0.451,0.54-1.111,0.947-1.982,1.223
	c-0.944,0.298-1.775,0.328-2.491,0.09c-0.717-0.238-1.313-0.696-1.789-1.376c-0.334-0.469-0.718-1.393-1.153-2.77L23.496,18.311z"/>
<path fill="#005A9A" d="M32.691,11.86l2.017-0.556l0.304,1.102c0.194,0.703,0.273,1.331,0.24,1.885
	c-0.034,0.554-0.182,1.156-0.445,1.807l-0.953-0.397c0.118-0.341,0.195-0.63,0.23-0.866c0.036-0.236,0.051-0.538,0.046-0.909
	l-0.808,0.223L32.691,11.86z"/>
<rect x="38.605" y="10.199" transform="matrix(0.9695 -0.2452 0.2452 0.9695 -2.8224 10.2472)" fill="#005A9A" width="2.266" height="12.518"/>
<rect x="42.632" y="9.225" transform="matrix(0.9741 -0.2259 0.2259 0.9741 -2.3666 10.2883)" fill="#005A9A" width="2.267" height="12.518"/>
<rect x="51.417" y="7.385" transform="matrix(0.9829 -0.184 0.184 0.9829 -1.6131 9.9003)" fill="#005A9A" width="2.267" height="12.517"/>
<path fill="#005A9A" d="M59.532,9.419c0.843-0.126,1.667-0.034,2.472,0.276c0.804,0.31,1.468,0.796,1.993,1.456
	c0.524,0.66,0.848,1.409,0.973,2.247c0.127,0.842,0.035,1.662-0.273,2.458c-0.31,0.796-0.794,1.454-1.455,1.976
	c-0.661,0.521-1.426,0.847-2.296,0.977c-1.281,0.192-2.442-0.1-3.484-0.876s-1.661-1.815-1.856-3.118
	c-0.209-1.395,0.129-2.635,1.013-3.718C57.396,10.152,58.366,9.593,59.532,9.419 M59.885,11.523c-0.696,0.104-1.24,0.433-1.63,0.987
	c-0.391,0.554-0.53,1.208-0.417,1.963c0.116,0.777,0.439,1.372,0.969,1.785c0.53,0.413,1.146,0.568,1.848,0.463
	c0.701-0.105,1.249-0.436,1.642-0.993s0.532-1.218,0.417-1.985c-0.114-0.766-0.436-1.354-0.966-1.764
	C61.218,11.568,60.598,11.416,59.885,11.523"/>
<polygon fill="#005A9A" points="65.497,8.795 67.794,8.569 70.585,13.65 72.331,8.124 74.617,7.9 71.674,17.263 70.212,17.407 "/>
<path fill="#005A9A" d="M85.526,12.537l-7.272,0.337c0.134,0.636,0.439,1.133,0.912,1.49c0.474,0.358,1.064,0.52,1.772,0.488
	c0.846-0.039,1.559-0.368,2.14-0.988l1.948,0.807c-0.444,0.697-0.99,1.222-1.638,1.576c-0.649,0.354-1.429,0.552-2.341,0.594
	c-1.415,0.065-2.589-0.328-3.52-1.179c-0.931-0.852-1.428-1.949-1.49-3.293c-0.064-1.376,0.327-2.539,1.172-3.49
	c0.846-0.95,1.937-1.456,3.275-1.518c1.42-0.066,2.597,0.335,3.529,1.204c0.932,0.868,1.432,2.048,1.501,3.541L85.526,12.537z
	 M83.18,10.859c-0.173-0.496-0.487-0.891-0.941-1.186c-0.455-0.295-0.974-0.429-1.555-0.402c-0.631,0.029-1.176,0.232-1.636,0.608
	c-0.289,0.234-0.548,0.637-0.777,1.207L83.18,10.859z"/>
<path fill="#005A9A" d="M98.737,7.111l2.266-0.029l0.116,9.031l-2.266,0.029l-0.012-0.954c-0.437,0.426-0.877,0.734-1.319,0.925
	c-0.443,0.191-0.924,0.29-1.443,0.297c-1.166,0.015-2.181-0.425-3.044-1.318c-0.863-0.894-1.302-2.013-1.32-3.358
	c-0.018-1.394,0.379-2.542,1.191-3.443c0.812-0.902,1.807-1.36,2.984-1.375c0.542-0.007,1.051,0.088,1.53,0.287
	c0.478,0.198,0.921,0.5,1.33,0.904L98.737,7.111z M96.379,9.001C95.678,9.01,95.1,9.265,94.643,9.767
	c-0.457,0.501-0.681,1.139-0.671,1.913c0.011,0.78,0.254,1.419,0.732,1.917c0.478,0.497,1.062,0.741,1.752,0.733
	c0.711-0.01,1.298-0.265,1.76-0.766c0.462-0.501,0.688-1.153,0.678-1.955c-0.01-0.786-0.252-1.42-0.727-1.9
	C97.691,9.229,97.096,8.993,96.379,9.001"/>
<path fill="#005A9A" d="M110.441,3.604l-0.032,4.483c0.412-0.407,0.857-0.711,1.334-0.912c0.478-0.202,0.988-0.3,1.53-0.296
	c1.179,0.008,2.177,0.461,2.995,1.358s1.222,2.042,1.212,3.437c-0.009,1.344-0.444,2.466-1.302,3.365
	c-0.859,0.898-1.872,1.344-3.04,1.335c-0.52-0.004-1.003-0.1-1.451-0.289c-0.446-0.188-0.89-0.494-1.329-0.918l-0.007,0.954
	l-2.25-0.016l0.091-12.517L110.441,3.604z M112.785,8.967c-0.714-0.005-1.308,0.234-1.782,0.717
	c-0.474,0.484-0.714,1.119-0.719,1.905c-0.006,0.802,0.225,1.453,0.691,1.951c0.467,0.499,1.058,0.751,1.771,0.756
	c0.692,0.005,1.276-0.243,1.753-0.743s0.718-1.14,0.724-1.92c0.005-0.775-0.223-1.412-0.684-1.911
	C114.078,9.224,113.493,8.972,112.785,8.967"/>
<path fill="#005A9A" d="M120.364,3.471c0.397,0.006,0.736,0.155,1.016,0.446c0.28,0.292,0.417,0.643,0.411,1.052
	c-0.006,0.404-0.151,0.746-0.437,1.028c-0.285,0.28-0.624,0.418-1.015,0.412c-0.403-0.006-0.744-0.155-1.025-0.45
	c-0.28-0.295-0.417-0.649-0.41-1.064c0.005-0.399,0.15-0.737,0.436-1.015C119.626,3.603,119.967,3.465,120.364,3.471 M119.178,7.173
	l2.266,0.033l-0.13,9.03l-2.266-0.033L119.178,7.173z"/>
<polygon fill="#005A9A" points="123.875,3.917 126.142,3.958 126.082,7.286 127.425,7.311 127.39,9.261 126.044,9.236 
	125.917,16.315 123.65,16.274 123.779,9.194 122.618,9.173 122.652,7.224 123.814,7.245 "/>
<path fill="#005A9A" d="M137.681,7.325c0.852,0.024,1.646,0.259,2.385,0.705c0.738,0.447,1.307,1.041,1.707,1.783
	s0.59,1.536,0.566,2.382c-0.023,0.852-0.258,1.642-0.7,2.372c-0.444,0.73-1.036,1.293-1.778,1.691
	c-0.742,0.397-1.553,0.584-2.432,0.56c-1.295-0.035-2.387-0.526-3.277-1.473c-0.891-0.946-1.316-2.077-1.281-3.394
	c0.039-1.41,0.588-2.572,1.648-3.484C135.449,7.674,136.503,7.293,137.681,7.325 M137.66,9.459c-0.703-0.02-1.295,0.209-1.777,0.686
	c-0.481,0.477-0.731,1.097-0.754,1.86c-0.021,0.786,0.191,1.428,0.642,1.928c0.449,0.499,1.028,0.758,1.737,0.778
	c0.71,0.019,1.308-0.21,1.791-0.69c0.484-0.479,0.738-1.106,0.759-1.88c0.021-0.775-0.19-1.411-0.642-1.907
	C138.966,9.737,138.38,9.479,137.66,9.459"/>
<path fill="#005A9A" d="M143.185,7.786l0.805,0.001c0.008-1.185,0.029-1.884,0.061-2.1c0.062-0.498,0.271-0.892,0.63-1.182
	s0.86-0.435,1.516-0.434c0.47,0,1,0.108,1.595,0.324l-0.004,1.727c-0.326-0.094-0.595-0.142-0.806-0.142
	c-0.267,0-0.459,0.055-0.58,0.166c-0.088,0.083-0.135,0.254-0.133,0.515l-0.011,1.128l1.437,0.001l-0.002,1.918l-1.437-0.001
	l-0.006,7.113l-2.268-0.002l0.006-7.114l-0.805-0.001L143.185,7.786z"/>
<path fill="#005A9A" d="M150.119,14.223c0.359,0.013,0.662,0.149,0.908,0.41c0.246,0.261,0.362,0.571,0.35,0.93
	c-0.014,0.36-0.151,0.662-0.416,0.908c-0.264,0.245-0.573,0.361-0.934,0.348c-0.359-0.013-0.662-0.151-0.908-0.414
	c-0.244-0.264-0.361-0.575-0.348-0.934c0.012-0.36,0.15-0.661,0.414-0.903C149.449,14.325,149.759,14.209,150.119,14.223"/>
<path fill="#005A9A" d="M154.871,14.223c0.359,0.014,0.662,0.152,0.906,0.413c0.246,0.261,0.361,0.572,0.348,0.931
	c-0.016,0.36-0.153,0.662-0.418,0.906c-0.264,0.245-0.576,0.36-0.936,0.346c-0.359-0.013-0.662-0.153-0.906-0.417
	c-0.244-0.264-0.359-0.576-0.346-0.935c0.014-0.36,0.152-0.661,0.418-0.902C154.201,14.323,154.511,14.208,154.871,14.223"/>
<path fill="#005A9A" d="M159.615,14.223c0.359,0.015,0.66,0.153,0.904,0.416c0.244,0.262,0.357,0.573,0.344,0.932
	c-0.016,0.36-0.156,0.661-0.422,0.905c-0.264,0.243-0.576,0.358-0.936,0.343c-0.359-0.015-0.66-0.156-0.904-0.42
	c-0.244-0.265-0.357-0.577-0.344-0.937c0.016-0.359,0.156-0.659,0.421-0.901C158.943,14.321,159.255,14.208,159.615,14.223"/>
<image overflow="visible" opacity="0.75" width="407" height="77" xlink:href="../../../../../../../Users/akcook/Desktop/blur.png"  transform="matrix(0.4109 0 0 0.4109 71.3633 29.5835)">
</image>
<g>
	<path fill="#FFFFFF" d="M73.338,56.775l3.724-24.855H87.37c3.43,0,5.903,0.495,7.414,1.49c1.517,0.993,2.279,2.59,2.279,4.797
		c0,1.418-0.278,2.61-0.829,3.594c-0.549,0.98-1.407,1.785-2.564,2.425c0.993,0.431,1.754,1.077,2.301,1.948
		c0.536,0.879,0.81,1.883,0.81,3.022c0,2.513-0.83,4.411-2.487,5.677c-1.66,1.272-4.131,1.902-7.423,1.902H73.338z M81.838,51.015
		h3.889c1.267,0,2.193-0.205,2.764-0.609c0.572-0.398,0.86-1.066,0.86-1.965c0-0.771-0.255-1.322-0.762-1.658
		c-0.515-0.334-1.398-0.5-2.656-0.5h-3.404L81.838,51.015z M83.128,41.865h3.257c1.194,0,2.06-0.181,2.59-0.566
		c0.52-0.373,0.793-0.99,0.793-1.842c0-0.713-0.242-1.217-0.718-1.508c-0.478-0.285-1.423-0.429-2.833-0.429h-2.362L83.128,41.865z"
		/>
	<polygon fill="#FFFFFF" points="97.654,56.775 101.451,31.92 120.66,31.92 119.748,37.833 108.3,37.833 107.745,41.25 
		117.934,41.25 117.046,46.776 106.883,46.776 106.354,50.759 118.553,50.759 117.703,56.775 	"/>
	<polygon fill="#FFFFFF" points="125.957,56.775 128.693,38.24 121.636,38.24 122.685,31.92 144.389,31.92 143.307,38.24 
		136.571,38.24 133.876,56.775 	"/>
	<polygon fill="#FFFFFF" points="142.688,56.775 146.449,31.92 163.923,31.92 162.962,38.009 153.298,38.009 152.671,41.938 
		160.884,41.938 159.958,47.854 151.798,47.854 150.496,56.775 	"/>
	<path fill="#FFFFFF" d="M162.449,56.775l3.699-24.855h11.507c3.212,0,5.556,0.534,7.034,1.611c1.487,1.075,2.23,2.758,2.23,5.067
		c0,1.657-0.402,3.086-1.205,4.272c-0.807,1.188-1.98,2.117-3.532,2.787c1.104,0.42,1.884,0.979,2.356,1.643
		c0.469,0.668,0.703,1.555,0.703,2.668c0,0.238-0.006,0.486-0.021,0.757c-0.019,0.267-0.041,0.54-0.075,0.83l-0.271,2.522
		c-0.03,0.231-0.054,0.405-0.062,0.508c0,0.11-0.007,0.215-0.007,0.317c0,0.318,0.061,0.583,0.191,0.78
		c0.117,0.191,0.314,0.344,0.575,0.449v0.643h-8.388c-0.045-0.158-0.073-0.333-0.092-0.516c-0.012-0.188-0.025-0.385-0.025-0.604
		c0-0.143,0.014-0.326,0.025-0.556c0.019-0.226,0.045-0.496,0.074-0.81l0.353-2.502c0.021-0.146,0.037-0.302,0.049-0.449
		c0.011-0.164,0.015-0.371,0.015-0.639c0-1.062-0.297-1.808-0.901-2.234c-0.601-0.43-1.656-0.641-3.175-0.641h-2.035l-1.361,8.947
		h-7.662V56.775z M172.221,42.533h3.79c1.191,0,2.064-0.199,2.628-0.619c0.567-0.41,0.848-1.057,0.848-1.934
		c0-0.756-0.245-1.309-0.739-1.639c-0.498-0.346-1.308-0.508-2.433-0.508h-3.358L172.221,42.533z"/>
	<polygon fill="#FFFFFF" points="187.565,56.775 191.363,31.92 210.574,31.92 209.66,37.833 198.208,37.833 197.655,41.25 
		207.847,41.25 206.957,46.776 196.794,46.776 196.272,50.759 208.46,50.759 207.612,56.775 	"/>
	<path fill="#FFFFFF" d="M209.941,56.775l3.691-24.856h9.882c2.497,0,4.424,0.28,5.799,0.839c1.374,0.566,2.574,1.52,3.599,2.871
		c0.688,0.904,1.213,1.992,1.588,3.27c0.365,1.27,0.551,2.659,0.551,4.152c0,4.445-1.17,7.845-3.508,10.197
		c-2.338,2.35-5.717,3.526-10.139,3.526L209.941,56.775L209.941,56.775z M218.708,50.605h1.832c1.248,0,2.201-0.1,2.836-0.29
		c0.65-0.187,1.223-0.517,1.723-0.978c0.589-0.553,1.083-1.42,1.46-2.569c0.388-1.146,0.576-2.376,0.576-3.685
		c0-1.869-0.36-3.188-1.085-3.955c-0.713-0.764-1.956-1.142-3.725-1.142h-1.785L218.708,50.605z"/>
</g>
</svg>
