<?xml version="1.0" encoding="utf-8"?>
<!-- Generator: Adobe Illustrator 16.0.0, SVG Export Plug-In . SVG Version: 6.00 Build 0)  -->
<!DOCTYPE svg PUBLIC "-//W3C//DTD SVG 1.1//EN" "http://www.w3.org/Graphics/SVG/1.1/DTD/svg11.dtd">
<svg version="1.1" id="Layer_1" xmlns="http://www.w3.org/2000/svg" xmlns:xlink="http://www.w3.org/1999/xlink" x="0px" y="0px"
	 width="512px" height="144.848px" viewBox="0 0 512 144.848" enable-background="new 0 0 512 144.848" xml:space="preserve">
<g>
	<defs>
		<polygon id="SVGID_1_" points="64.784,81.655 73.447,81.655 74.638,74.035 65.978,74.035 		"/>
	</defs>
	<clipPath id="SVGID_2_">
		<use xlink:href="#SVGID_1_"  overflow="visible"/>
	</clipPath>
	
		<linearGradient id="SVGID_3_" gradientUnits="userSpaceOnUse" x1="112.1567" y1="328.3867" x2="114.1567" y2="328.3867" gradientTransform="matrix(229.7603 0 0 -229.7603 -25733.375 75528.25)">
		<stop  offset="0" style="stop-color:#E21937"/>
		<stop  offset="0.15" style="stop-color:#E21937"/>
		<stop  offset="0.65" style="stop-color:#804082"/>
		<stop  offset="1" style="stop-color:#005E9C"/>
	</linearGradient>
	<rect x="64.784" y="74.035" clip-path="url(#SVGID_2_)" fill="url(#SVGID_3_)" width="9.854" height="7.62"/>
</g>
<g>
	<defs>
		<polygon id="SVGID_4_" points="82.47,99.358 93.375,99.358 94.876,89.763 83.973,89.763 		"/>
	</defs>
	<clipPath id="SVGID_5_">
		<use xlink:href="#SVGID_4_"  overflow="visible"/>
	</clipPath>
	
		<linearGradient id="SVGID_6_" gradientUnits="userSpaceOnUse" x1="112.1562" y1="328.3496" x2="114.1562" y2="328.3496" gradientTransform="matrix(229.7603 0 0 -229.7603 -25733.25 75536.375)">
		<stop  offset="0" style="stop-color:#E21937"/>
		<stop  offset="0.15" style="stop-color:#E21937"/>
		<stop  offset="0.65" style="stop-color:#804082"/>
		<stop  offset="1" style="stop-color:#005E9C"/>
	</linearGradient>
	<rect x="82.47" y="89.763" clip-path="url(#SVGID_5_)" fill="url(#SVGID_6_)" width="12.406" height="9.595"/>
</g>
<g>
	<defs>
		<polygon id="SVGID_7_" points="55.586,100.651 64.247,100.651 65.439,93.033 56.78,93.033 		"/>
	</defs>
	<clipPath id="SVGID_8_">
		<use xlink:href="#SVGID_7_"  overflow="visible"/>
	</clipPath>
	
		<linearGradient id="SVGID_9_" gradientUnits="userSpaceOnUse" x1="112.1538" y1="328.3467" x2="114.2003" y2="328.3467" gradientTransform="matrix(229.7603 0 0 -229.7603 -25733.375 75537.75)">
		<stop  offset="0" style="stop-color:#E21937"/>
		<stop  offset="0.15" style="stop-color:#E21937"/>
		<stop  offset="0.65" style="stop-color:#804082"/>
		<stop  offset="1" style="stop-color:#005E9C"/>
	</linearGradient>
	<rect x="55.586" y="93.033" clip-path="url(#SVGID_8_)" fill="url(#SVGID_9_)" width="9.854" height="7.619"/>
</g>
<g>
	<defs>
		<polygon id="SVGID_10_" points="138.519,58.594 126.287,58.594 124.603,69.355 136.833,69.355 		"/>
	</defs>
	<clipPath id="SVGID_11_">
		<use xlink:href="#SVGID_10_"  overflow="visible"/>
	</clipPath>
	
		<linearGradient id="SVGID_12_" gradientUnits="userSpaceOnUse" x1="112.1519" y1="328.417" x2="114.1846" y2="328.417" gradientTransform="matrix(229.7603 0 0 -229.7603 -25733.375 75521.25)">
		<stop  offset="0" style="stop-color:#E21937"/>
		<stop  offset="0.15" style="stop-color:#E21937"/>
		<stop  offset="0.65" style="stop-color:#804082"/>
		<stop  offset="1" style="stop-color:#005E9C"/>
	</linearGradient>
	<rect x="124.603" y="58.594" clip-path="url(#SVGID_11_)" fill="url(#SVGID_12_)" width="13.917" height="10.761"/>
</g>
<g>
	<defs>
		<polygon id="SVGID_13_" points="114.164,96.934 127.431,96.934 129.26,85.258 115.991,85.258 		"/>
	</defs>
	<clipPath id="SVGID_14_">
		<use xlink:href="#SVGID_13_"  overflow="visible"/>
	</clipPath>
	
		<linearGradient id="SVGID_15_" gradientUnits="userSpaceOnUse" x1="112.1499" y1="328.3574" x2="114.1954" y2="328.3574" gradientTransform="matrix(229.7603 0 0 -229.7603 -25733.375 75534.75)">
		<stop  offset="0" style="stop-color:#E21937"/>
		<stop  offset="0.15" style="stop-color:#E21937"/>
		<stop  offset="0.65" style="stop-color:#804082"/>
		<stop  offset="1" style="stop-color:#005E9C"/>
	</linearGradient>
	<rect x="114.164" y="85.258" clip-path="url(#SVGID_14_)" fill="url(#SVGID_15_)" width="15.097" height="11.675"/>
</g>
<g>
	<defs>
		<polygon id="SVGID_16_" points="101.125,117.604 112.637,117.604 114.223,107.475 102.712,107.475 		"/>
	</defs>
	<clipPath id="SVGID_17_">
		<use xlink:href="#SVGID_16_"  overflow="visible"/>
	</clipPath>
	
		<linearGradient id="SVGID_18_" gradientUnits="userSpaceOnUse" x1="112.1553" y1="328.3105" x2="114.1725" y2="328.3105" gradientTransform="matrix(229.7603 0 0 -229.7603 -25733.375 75545.375)">
		<stop  offset="0" style="stop-color:#E21937"/>
		<stop  offset="0.15" style="stop-color:#E21937"/>
		<stop  offset="0.65" style="stop-color:#804082"/>
		<stop  offset="1" style="stop-color:#005E9C"/>
	</linearGradient>
	<rect x="101.125" y="107.475" clip-path="url(#SVGID_17_)" fill="url(#SVGID_18_)" width="13.098" height="10.13"/>
</g>
<g>
	<defs>
		<polygon id="SVGID_19_" points="107.455,65.021 95.941,65.021 94.356,75.149 105.868,75.149 		"/>
	</defs>
	<clipPath id="SVGID_20_">
		<use xlink:href="#SVGID_19_"  overflow="visible"/>
	</clipPath>
	
		<linearGradient id="SVGID_21_" gradientUnits="userSpaceOnUse" x1="112.1558" y1="328.4043" x2="114.173" y2="328.4043" gradientTransform="matrix(229.7603 0 0 -229.7603 -25733.375 75524.25)">
		<stop  offset="0" style="stop-color:#E21937"/>
		<stop  offset="0.15" style="stop-color:#E21937"/>
		<stop  offset="0.65" style="stop-color:#804082"/>
		<stop  offset="1" style="stop-color:#005E9C"/>
	</linearGradient>
	<rect x="94.356" y="65.021" clip-path="url(#SVGID_20_)" fill="url(#SVGID_21_)" width="13.099" height="10.129"/>
</g>
<g>
	<defs>
		<polygon id="SVGID_22_" points="35.604,90.626 40.304,90.626 40.952,86.49 36.253,86.49 		"/>
	</defs>
	<clipPath id="SVGID_23_">
		<use xlink:href="#SVGID_22_"  overflow="visible"/>
	</clipPath>
	
		<linearGradient id="SVGID_24_" gradientUnits="userSpaceOnUse" x1="112.1558" y1="328.3633" x2="114.1558" y2="328.3633" gradientTransform="matrix(229.7603 0 0 -229.7603 -25733.375 75533.5)">
		<stop  offset="0" style="stop-color:#E21937"/>
		<stop  offset="0.15" style="stop-color:#E21937"/>
		<stop  offset="0.65" style="stop-color:#804082"/>
		<stop  offset="1" style="stop-color:#005E9C"/>
	</linearGradient>
	<rect x="35.604" y="86.49" clip-path="url(#SVGID_23_)" fill="url(#SVGID_24_)" width="5.347" height="4.136"/>
</g>
<g>
	<defs>
		<polygon id="SVGID_25_" points="146.594,74.86 163.511,74.86 166.484,55.871 149.567,55.871 		"/>
	</defs>
	<clipPath id="SVGID_26_">
		<use xlink:href="#SVGID_25_"  overflow="visible"/>
	</clipPath>
	
		<linearGradient id="SVGID_27_" gradientUnits="userSpaceOnUse" x1="112.1538" y1="328.415" x2="114.1765" y2="328.415" gradientTransform="matrix(229.7603 0 0 -229.7603 -25733.375 75522)">
		<stop  offset="0" style="stop-color:#E21937"/>
		<stop  offset="0.15" style="stop-color:#E21937"/>
		<stop  offset="0.65" style="stop-color:#804082"/>
		<stop  offset="1" style="stop-color:#005E9C"/>
	</linearGradient>
	<rect x="146.594" y="55.871" clip-path="url(#SVGID_26_)" fill="url(#SVGID_27_)" width="19.89" height="18.989"/>
</g>
<g>
	<defs>
		<polygon id="SVGID_28_" points="140.575,99.423 157.49,99.423 160.147,82.454 143.233,82.454 		"/>
	</defs>
	<clipPath id="SVGID_29_">
		<use xlink:href="#SVGID_28_"  overflow="visible"/>
	</clipPath>
	
		<linearGradient id="SVGID_30_" gradientUnits="userSpaceOnUse" x1="112.1597" y1="328.3584" x2="114.1597" y2="328.3584" gradientTransform="matrix(229.7603 0 0 -229.7603 -25733.375 75534.75)">
		<stop  offset="0" style="stop-color:#E21937"/>
		<stop  offset="0.15" style="stop-color:#E21937"/>
		<stop  offset="0.65" style="stop-color:#804082"/>
		<stop  offset="1" style="stop-color:#005E9C"/>
	</linearGradient>
	<rect x="140.575" y="82.454" clip-path="url(#SVGID_29_)" fill="url(#SVGID_30_)" width="19.573" height="16.969"/>
</g>
<g>
	<defs>
		<polygon id="SVGID_31_" points="134.529,127.8 157.102,127.8 160.075,108.813 137.502,108.813 		"/>
	</defs>
	<clipPath id="SVGID_32_">
		<use xlink:href="#SVGID_31_"  overflow="visible"/>
	</clipPath>
	
		<linearGradient id="SVGID_33_" gradientUnits="userSpaceOnUse" x1="112.1543" y1="328.2988" x2="114.172" y2="328.2988" gradientTransform="matrix(229.7603 0 0 -229.7603 -25733.5 75548.375)">
		<stop  offset="0" style="stop-color:#E21937"/>
		<stop  offset="0.15" style="stop-color:#E21937"/>
		<stop  offset="0.65" style="stop-color:#804082"/>
		<stop  offset="1" style="stop-color:#005E9C"/>
	</linearGradient>
	<rect x="134.529" y="108.813" clip-path="url(#SVGID_32_)" fill="url(#SVGID_33_)" width="25.546" height="18.987"/>
</g>
<g>
	<defs>
		<polygon id="SVGID_34_" points="179.653,56.209 168.496,127.464 189.403,127.464 200.56,56.209 		"/>
	</defs>
	<clipPath id="SVGID_35_">
		<use xlink:href="#SVGID_34_"  overflow="visible"/>
	</clipPath>
	
		<linearGradient id="SVGID_36_" gradientUnits="userSpaceOnUse" x1="112.1582" y1="328.3574" x2="114.1652" y2="328.3574" gradientTransform="matrix(229.7603 0 0 -229.7603 -25733.375 75535.25)">
		<stop  offset="0" style="stop-color:#E21937"/>
		<stop  offset="0.15" style="stop-color:#E21937"/>
		<stop  offset="0.65" style="stop-color:#804082"/>
		<stop  offset="1" style="stop-color:#005E9C"/>
	</linearGradient>
	<rect x="168.496" y="56.209" clip-path="url(#SVGID_35_)" fill="url(#SVGID_36_)" width="32.064" height="71.255"/>
</g>
<g>
	<defs>
		<polygon id="SVGID_37_" points="206.151,56.282 195.017,127.388 219.737,127.388 230.873,56.282 		"/>
	</defs>
	<clipPath id="SVGID_38_">
		<use xlink:href="#SVGID_37_"  overflow="visible"/>
	</clipPath>
	
		<linearGradient id="SVGID_39_" gradientUnits="userSpaceOnUse" x1="112.1567" y1="328.3574" x2="114.1693" y2="328.3574" gradientTransform="matrix(229.7603 0 0 -229.7603 -25733.375 75535.25)">
		<stop  offset="0" style="stop-color:#E21937"/>
		<stop  offset="0.15" style="stop-color:#E21937"/>
		<stop  offset="0.65" style="stop-color:#804082"/>
		<stop  offset="1" style="stop-color:#005E9C"/>
	</linearGradient>
	<rect x="195.017" y="56.282" clip-path="url(#SVGID_38_)" fill="url(#SVGID_39_)" width="35.856" height="71.105"/>
</g>
<g>
	<defs>
		<polygon id="SVGID_40_" points="238.418,56.282 227.282,127.388 497.446,127.388 497.446,56.282 		"/>
	</defs>
	<clipPath id="SVGID_41_">
		<use xlink:href="#SVGID_40_"  overflow="visible"/>
	</clipPath>
	
		<linearGradient id="SVGID_42_" gradientUnits="userSpaceOnUse" x1="112.1558" y1="328.3574" x2="114.1708" y2="328.3574" gradientTransform="matrix(229.7603 0 0 -229.7603 -25733.375 75535.25)">
		<stop  offset="0" style="stop-color:#E21937"/>
		<stop  offset="0.15" style="stop-color:#E21937"/>
		<stop  offset="0.65" style="stop-color:#804082"/>
		<stop  offset="1" style="stop-color:#004990"/>
	</linearGradient>
	<rect x="227.282" y="56.282" clip-path="url(#SVGID_41_)" fill="url(#SVGID_42_)" width="270.165" height="71.105"/>
</g>
<g opacity="0.8">
	<g>
		<defs>
			<rect id="SVGID_43_" x="148.155" y="64.435" width="333.259" height="57.559"/>
		</defs>
		<clipPath id="SVGID_44_">
			<use xlink:href="#SVGID_43_"  overflow="visible"/>
		</clipPath>
		<g clip-path="url(#SVGID_44_)">
			<defs>
				<rect id="SVGID_45_" x="148.155" y="64.435" width="333.259" height="57.559"/>
			</defs>
			<clipPath id="SVGID_46_">
				<use xlink:href="#SVGID_45_"  overflow="visible"/>
			</clipPath>
			<g clip-path="url(#SVGID_46_)">
				
					<image overflow="visible" width="689" height="119" xlink:href="E7850E8AD6BC83DA.png"  transform="matrix(0.4837 0 0 0.4837 148.1553 64.4351)">
				</image>
			</g>
		</g>
	</g>
</g>
<path fill="#FFFFFF" d="M150.509,116.883l7.506-50.092h20.775c6.912,0,11.896,0.997,14.94,3.002
	c3.059,2.001,4.593,5.219,4.593,9.665c0,2.858-0.561,5.263-1.67,7.243c-1.106,1.978-2.836,3.6-5.167,4.887
	c2.001,0.866,3.535,2.173,4.637,3.927c1.08,1.773,1.633,3.794,1.633,6.093c0,5.062-1.673,8.89-5.012,11.439
	c-3.346,2.565-8.325,3.836-14.959,3.836H150.509z M167.64,105.272h7.838c2.553,0,4.419-0.413,5.57-1.23
	c1.153-0.803,1.734-2.147,1.734-3.958c0-1.555-0.515-2.667-1.536-3.342c-1.039-0.673-2.817-1.008-5.353-1.008h-6.861L167.64,105.272
	z M170.24,86.833h6.564c2.406,0,4.151-0.364,5.22-1.142c1.048-0.754,1.598-1.998,1.598-3.714c0-1.437-0.488-2.452-1.447-3.037
	c-0.964-0.575-2.867-0.865-5.709-0.865h-4.76L170.24,86.833z"/>
<polygon fill="#FFFFFF" points="199.513,116.883 207.165,66.791 245.878,66.791 244.04,78.708 220.97,78.708 219.851,85.591 
	240.385,85.591 238.596,96.731 218.113,96.731 217.049,104.757 241.633,104.757 239.918,116.883 "/>
<polygon fill="#FFFFFF" points="256.553,116.883 262.069,79.525 247.846,79.525 249.96,66.791 293.703,66.791 291.522,79.525 
	277.946,79.525 272.519,116.883 "/>
<polygon fill="#FFFFFF" points="290.274,116.883 297.853,66.791 333.074,66.791 331.133,79.064 311.657,79.064 310.394,86.979 
	326.945,86.979 325.078,98.903 308.634,98.903 306.008,116.883 "/>
<path fill="#FFFFFF" d="M330.098,116.883l7.455-50.092h23.192c6.471,0,11.194,1.076,14.175,3.244c3,2.169,4.495,5.558,4.495,10.213
	c0,3.339-0.812,6.22-2.43,8.61c-1.621,2.397-3.99,4.269-7.116,5.617c2.225,0.846,3.795,1.972,4.747,3.31
	c0.945,1.346,1.418,3.133,1.418,5.377c0,0.48-0.008,0.982-0.04,1.525c-0.036,0.535-0.083,1.088-0.149,1.673l-0.547,5.085
	c-0.062,0.467-0.106,0.816-0.126,1.021c0,0.225-0.013,0.435-0.013,0.642c0,0.642,0.123,1.174,0.387,1.572
	c0.236,0.389,0.633,0.693,1.161,0.906v1.295h-16.906c-0.091-0.321-0.146-0.672-0.185-1.04c-0.024-0.376-0.052-0.775-0.052-1.216
	c0-0.286,0.027-0.655,0.052-1.118c0.039-0.456,0.09-1,0.152-1.63l0.709-5.042c0.043-0.297,0.074-0.608,0.098-0.907
	c0.021-0.329,0.028-0.748,0.028-1.287c0-2.139-0.599-3.641-1.818-4.503c-1.208-0.864-3.338-1.292-6.396-1.292h-4.102l-2.743,18.035
	H330.098z M349.795,88.178h7.636c2.401,0,4.164-0.402,5.299-1.246c1.142-0.827,1.708-2.129,1.708-3.899
	c0-1.522-0.497-2.634-1.492-3.302c-1.004-0.696-2.633-1.024-4.9-1.024h-6.771L349.795,88.178z"/>
<polygon fill="#FFFFFF" points="380.718,116.883 388.37,66.791 427.087,66.791 425.244,78.708 402.17,78.708 401.053,85.591 
	421.592,85.591 419.797,96.731 399.316,96.731 398.266,104.757 422.832,104.757 421.119,116.883 "/>
<path fill="#FFFFFF" d="M425.811,116.883l7.439-50.094h19.918c5.03,0,8.915,0.565,11.687,1.69c2.768,1.142,5.188,3.064,7.25,5.785
	c1.387,1.823,2.445,4.017,3.201,6.59c0.736,2.56,1.109,5.359,1.109,8.371c0,8.957-2.357,15.808-7.069,20.551
	c-4.712,4.733-11.521,7.107-20.433,7.107H425.811z M443.484,104.448h3.693c2.515,0,4.435-0.199,5.714-0.584
	c1.312-0.374,2.461-1.039,3.469-1.968c1.188-1.114,2.185-2.862,2.943-5.18c0.78-2.306,1.161-4.789,1.161-7.423
	c0-3.77-0.728-6.428-2.188-7.97c-1.438-1.539-3.94-2.302-7.506-2.302h-3.594L443.484,104.448z"/>
<polygon fill="#FFFFFF" points="8.169,56.356 12.419,54.429 21.44,62.881 21.479,50.326 25.742,48.393 25.619,75.742 21.321,77.688 
	21.423,68.843 "/>
<path fill="#FFFFFF" d="M36.73,43.707c1.606-0.607,3.269-0.774,4.986-0.503c1.717,0.27,3.233,0.944,4.544,2.023
	c1.312,1.078,2.27,2.417,2.872,4.013c0.607,1.605,0.774,3.258,0.504,4.959c-0.271,1.699-0.947,3.202-2.027,4.508
	c-1.08,1.308-2.45,2.275-4.109,2.9c-2.443,0.921-4.854,0.838-7.237-0.248c-2.383-1.085-4.041-2.87-4.979-5.353
	c-1.004-2.663-0.864-5.246,0.419-7.757C32.832,46.061,34.507,44.545,36.73,43.707 M38.318,47.703
	c-1.328,0.501-2.259,1.38-2.793,2.636c-0.536,1.258-0.532,2.605,0.013,4.044c0.558,1.481,1.447,2.518,2.666,3.106
	c1.22,0.591,2.498,0.633,3.836,0.127c1.337-0.504,2.277-1.389,2.815-2.652c0.537-1.263,0.532-2.626-0.02-4.087
	c-0.55-1.461-1.436-2.484-2.652-3.068C40.964,47.228,39.676,47.191,38.318,47.703"/>
<path fill="#FFFFFF" d="M50.06,39.362l4.404-1.391l2.64,8.357c0.514,1.629,0.983,2.723,1.406,3.283
	c0.423,0.565,0.94,0.942,1.546,1.135c0.607,0.196,1.271,0.177,1.998-0.05c0.726-0.229,1.286-0.596,1.683-1.102
	s0.612-1.132,0.645-1.878c0.024-0.558-0.221-1.656-0.74-3.292l-2.687-8.503l4.356-1.376l2.324,7.354
	c0.956,3.031,1.372,5.182,1.247,6.449c-0.154,1.546-0.687,2.862-1.594,3.95c-0.909,1.088-2.239,1.909-3.994,2.465
	c-1.903,0.6-3.578,0.661-5.02,0.181c-1.446-0.479-2.646-1.403-3.605-2.773c-0.673-0.945-1.448-2.808-2.325-5.583L50.06,39.362z"/>
<path fill="#FFFFFF" d="M68.59,26.362l4.065-1.121l0.612,2.221c0.392,1.417,0.55,2.683,0.484,3.799
	c-0.068,1.116-0.367,2.329-0.897,3.641l-1.92-0.8c0.237-0.687,0.393-1.27,0.464-1.744c0.072-0.476,0.102-1.085,0.092-1.833
	l-1.629,0.45L68.59,26.362z"/>
<rect x="80.508" y="23.014" transform="matrix(-0.9694 0.2456 -0.2456 -0.9694 171.7982 49.8343)" fill="#FFFFFF" width="4.567" height="25.229"/>
<rect x="88.625" y="21.048" transform="matrix(-0.9741 0.226 -0.226 -0.9741 187.0741 45.9097)" fill="#FFFFFF" width="4.568" height="25.228"/>
<rect x="106.329" y="17.34" transform="matrix(-0.9829 0.184 -0.184 -0.9829 220.8829 39.4152)" fill="#FFFFFF" width="4.568" height="25.227"/>
<path fill="#FFFFFF" d="M122.686,21.442c1.699-0.254,3.359-0.069,4.982,0.556c1.62,0.625,2.958,1.604,4.016,2.935
	c1.057,1.331,1.709,2.84,1.961,4.528c0.256,1.697,0.071,3.35-0.55,4.954c-0.625,1.604-1.6,2.931-2.932,3.982
	c-1.333,1.05-2.874,1.708-4.627,1.97c-2.582,0.386-4.921-0.202-7.021-1.766c-2.1-1.563-3.348-3.657-3.741-6.284
	c-0.421-2.812,0.26-5.31,2.041-7.493C118.381,22.919,120.335,21.792,122.686,21.442 M123.397,25.683
	c-1.402,0.209-2.499,0.873-3.285,1.989c-0.788,1.117-1.069,2.435-0.84,3.957c0.233,1.566,0.885,2.766,1.952,3.597
	c1.069,0.833,2.31,1.146,3.725,0.934c1.413-0.212,2.518-0.879,3.31-2.002c0.792-1.123,1.072-2.455,0.84-4
	c-0.23-1.543-0.879-2.728-1.948-3.555C126.083,25.773,124.834,25.467,123.397,25.683"/>
<polygon fill="#FFFFFF" points="134.707,20.185 139.336,19.729 144.961,29.969 148.48,18.833 153.087,18.381 147.156,37.25 
	144.209,37.541 "/>
<path fill="#FFFFFF" d="M175.073,27.727l-14.655,0.679c0.27,1.281,0.884,2.283,1.837,3.002c0.956,0.721,2.145,1.047,3.571,0.984
	c1.706-0.079,3.143-0.742,4.313-1.992l3.927,1.627c-0.896,1.404-1.996,2.463-3.302,3.176c-1.308,0.714-2.88,1.112-4.718,1.197
	c-2.852,0.131-5.218-0.661-7.094-2.375c-1.877-1.717-2.878-3.928-3.004-6.636c-0.128-2.774,0.66-5.117,2.362-7.034
	c1.705-1.915,3.904-2.935,6.601-3.06c2.862-0.133,5.234,0.675,7.112,2.427c1.878,1.75,2.886,4.127,3.025,7.136L175.073,27.727z
	 M170.345,24.345c-0.349-1-0.981-1.796-1.896-2.391c-0.917-0.595-1.963-0.864-3.134-0.81c-1.271,0.058-2.37,0.467-3.296,1.225
	c-0.583,0.472-1.105,1.285-1.567,2.433L170.345,24.345z"/>
<path fill="#FFFFFF" d="M201.698,16.792l4.566-0.058l0.234,18.2l-4.566,0.059l-0.025-1.923c-0.88,0.858-1.768,1.479-2.657,1.864
	c-0.894,0.386-1.862,0.584-2.909,0.599c-2.349,0.03-4.395-0.856-6.135-2.657c-1.739-1.801-2.624-4.056-2.66-6.767
	c-0.037-2.81,0.764-5.123,2.4-6.939c1.636-1.817,3.642-2.74,6.013-2.771c1.093-0.014,2.119,0.177,3.085,0.579
	c0.963,0.398,1.854,1.008,2.681,1.822L201.698,16.792z M196.947,20.601c-1.415,0.019-2.578,0.532-3.5,1.544
	c-0.921,1.01-1.373,2.296-1.353,3.855c0.022,1.571,0.512,2.86,1.476,3.863c0.962,1.002,2.14,1.493,3.529,1.478
	c1.433-0.021,2.618-0.535,3.547-1.544c0.933-1.01,1.387-2.323,1.367-3.94c-0.021-1.583-0.508-2.861-1.466-3.829
	C199.59,21.059,198.391,20.583,196.947,20.601"/>
<path fill="#FFFFFF" d="M225.283,9.723l-0.063,9.035c0.831-0.821,1.726-1.433,2.689-1.838c0.962-0.408,1.989-0.604,3.082-0.597
	c2.377,0.016,4.389,0.929,6.036,2.736c1.647,1.808,2.462,4.116,2.443,6.927c-0.018,2.708-0.895,4.97-2.624,6.781
	c-1.73,1.811-3.772,2.709-6.127,2.691c-1.046-0.009-2.021-0.201-2.924-0.582c-0.897-0.379-1.792-0.996-2.676-1.85l-0.016,1.921
	l-4.534-0.031l0.185-25.226L225.283,9.723z M230.007,20.531c-1.437-0.009-2.635,0.472-3.589,1.445
	c-0.957,0.976-1.441,2.255-1.449,3.84c-0.011,1.616,0.454,2.928,1.392,3.933c0.942,1.005,2.131,1.513,3.567,1.523
	c1.396,0.01,2.572-0.49,3.535-1.498c0.961-1.008,1.447-2.298,1.458-3.87c0.01-1.562-0.45-2.846-1.379-3.851
	C232.612,21.049,231.436,20.541,230.007,20.531"/>
<path fill="#FFFFFF" d="M245.284,9.456c0.799,0.013,1.484,0.313,2.047,0.899c0.564,0.588,0.843,1.295,0.828,2.119
	c-0.011,0.815-0.305,1.504-0.88,2.072c-0.574,0.564-1.259,0.843-2.047,0.83c-0.81-0.012-1.5-0.312-2.065-0.906
	c-0.564-0.595-0.839-1.309-0.825-2.145c0.009-0.804,0.3-1.486,0.88-2.045C243.795,9.72,244.485,9.444,245.284,9.456 M242.894,16.917
	l4.566,0.066l-0.264,18.199l-4.565-0.067L242.894,16.917z"/>
<polygon fill="#FFFFFF" points="252.361,10.353 256.927,10.438 256.805,17.143 259.514,17.193 259.442,21.123 256.734,21.074 
	256.475,35.341 251.906,35.258 252.166,20.99 249.826,20.947 249.895,17.018 252.237,17.061 "/>
<path fill="#FFFFFF" d="M280.183,17.223c1.716,0.048,3.317,0.521,4.807,1.42c1.487,0.901,2.633,2.098,3.439,3.593
	c0.807,1.496,1.188,3.096,1.142,4.801c-0.047,1.717-0.52,3.309-1.41,4.78c-0.896,1.471-2.089,2.606-3.585,3.408
	c-1.496,0.8-3.13,1.177-4.9,1.128c-2.61-0.07-4.81-1.06-6.605-2.967c-1.795-1.907-2.653-4.187-2.582-6.84
	c0.078-2.842,1.185-5.184,3.322-7.022C275.683,17.926,277.809,17.158,280.183,17.223 M280.139,21.523
	c-1.417-0.041-2.609,0.42-3.582,1.382c-0.972,0.961-1.476,2.211-1.52,3.749c-0.043,1.584,0.386,2.879,1.291,3.886
	c0.906,1.005,2.075,1.527,3.504,1.567c1.429,0.039,2.633-0.423,3.609-1.39c0.976-0.965,1.487-2.229,1.527-3.789
	c0.044-1.562-0.386-2.844-1.291-3.843C282.772,22.083,281.591,21.563,280.139,21.523"/>
<path fill="#FFFFFF" d="M291.275,18.15l1.621,0.002c0.016-2.389,0.059-3.797,0.121-4.233c0.126-1.003,0.548-1.797,1.269-2.381
	c0.72-0.584,1.735-0.877,3.055-0.875c0.948,0,2.015,0.217,3.216,0.652l-0.013,3.481c-0.657-0.189-1.196-0.287-1.621-0.287
	c-0.536,0-0.925,0.111-1.169,0.334c-0.177,0.168-0.271,0.513-0.269,1.039l-0.019,2.273l2.893,0.002l-0.005,3.865l-2.893-0.001
	l-0.011,14.335l-4.57-0.004l0.012-14.337l-1.622-0.002L291.275,18.15z"/>
<path fill="#FFFFFF" d="M305.248,31.124c0.725,0.026,1.334,0.3,1.83,0.826c0.497,0.526,0.733,1.151,0.705,1.874
	c-0.027,0.727-0.308,1.334-0.839,1.831c-0.53,0.494-1.157,0.727-1.881,0.702c-0.725-0.026-1.334-0.306-1.831-0.835
	c-0.491-0.532-0.728-1.159-0.7-1.882c0.023-0.725,0.304-1.332,0.835-1.819C303.897,31.33,304.523,31.097,305.248,31.124"/>
<path fill="#FFFFFF" d="M314.825,31.124c0.725,0.029,1.334,0.306,1.826,0.833c0.496,0.525,0.728,1.152,0.701,1.877
	c-0.032,0.725-0.312,1.333-0.843,1.825c-0.531,0.495-1.161,0.726-1.886,0.698c-0.724-0.026-1.335-0.31-1.826-0.84
	c-0.492-0.532-0.725-1.161-0.696-1.885c0.026-0.725,0.307-1.332,0.843-1.818C313.475,31.325,314.101,31.095,314.825,31.124"/>
<path fill="#FFFFFF" d="M324.387,31.125c0.724,0.03,1.33,0.308,1.821,0.838c0.493,0.529,0.722,1.155,0.693,1.878
	c-0.031,0.726-0.315,1.333-0.851,1.824c-0.531,0.49-1.161,0.721-1.885,0.691c-0.725-0.03-1.331-0.314-1.822-0.846
	c-0.492-0.534-0.721-1.163-0.693-1.888c0.031-0.724,0.314-1.329,0.851-1.817C323.032,31.322,323.662,31.094,324.387,31.125"/>
</svg>
