<?xml version="1.0" encoding="utf-8"?>
<!-- Generator: Adobe Illustrator 16.0.0, SVG Export Plug-In . SVG Version: 6.00 Build 0)  -->
<!DOCTYPE svg PUBLIC "-//W3C//DTD SVG 1.1//EN" "http://www.w3.org/Graphics/SVG/1.1/DTD/svg11.dtd">
<svg version="1.1" id="Layer_1" xmlns="http://www.w3.org/2000/svg" xmlns:xlink="http://www.w3.org/1999/xlink" x="0px" y="0px"
	 width="512px" height="512px" viewBox="0 0 512 512" enable-background="new 0 0 512 512" xml:space="preserve">
<path fill="#5D5D5D" d="M321.348,46.739c-12.247,10.916-36.312,17.256-63.903,17.256c-27.395,0-51.24-7.643-63.56-18.432
	l-0.156,1.34c0,25.374,28.663,47.096,64.02,47.096h-0.422C292.684,94,321.348,72.113,321.348,46.739L321.348,46.739z"/>
<path fill="#8C8B8B" d="M257.326,91.366c35.357,0,64.021-20.57,64.021-45.943l90.173,27.611l91.758,95.612l-63.11,77.863
	l-24.47-15.206l2.414,245.284H257.748h-0.422H96.962l2.415-245.284l-24.469,15.206l-63.111-77.863l91.757-95.612l90.175-27.611
	c0,25.374,28.663,45.943,64.02,45.943H257.326z"/>
<polygon fill="#C1BCBC" points="26.16,153.682 92.594,235.518 74.908,246.509 11.797,168.646 "/>
<polygon fill="#C1BCBC" points="488.915,153.682 422.48,235.518 440.168,246.509 503.278,168.646 "/>
<polygon fill="#C1BCBC" points="417.889,453.589 97.187,453.589 96.962,476.587 418.112,476.587 "/>
<path fill="#5D5D5D" d="M106.036,75.914c0,0,45.637,149.489,0,370.847C106.036,446.761,182.937,191.265,106.036,75.914z"/>
<path fill="#5D5D5D" d="M405.653,75.914c0,0-45.637,149.489,0,370.847C405.653,446.761,328.753,191.265,405.653,75.914z"/>
<circle fill="#C1BCBC" cx="257.787" cy="143.662" r="19.883"/>
</svg>
