<?xml version="1.0" encoding="utf-8"?>
<!-- Generator: Adobe Illustrator 16.0.0, SVG Export Plug-In . SVG Version: 6.00 Build 0)  -->
<!DOCTYPE svg PUBLIC "-//W3C//DTD SVG 1.1//EN" "http://www.w3.org/Graphics/SVG/1.1/DTD/svg11.dtd">
<svg version="1.1" id="Layer_1" xmlns="http://www.w3.org/2000/svg" xmlns:xlink="http://www.w3.org/1999/xlink" x="0px" y="0px"
	 width="960px" height="254.667px" viewBox="0 0 960 254.667" enable-background="new 0 0 960 254.667" xml:space="preserve">
<g>
	<defs>
		<polygon id="SVGID_1_" points="122.077,153.608 138.556,153.608 140.821,139.114 124.348,139.114 		"/>
	</defs>
	<clipPath id="SVGID_2_">
		<use xlink:href="#SVGID_1_"  overflow="visible"/>
	</clipPath>
	
		<linearGradient id="SVGID_3_" gradientUnits="userSpaceOnUse" x1="335.3179" y1="199.1968" x2="339.1133" y2="199.1968" gradientTransform="matrix(229.7603 0 0 -229.7603 -76975.75 45913.9766)">
		<stop  offset="0" style="stop-color:#E21937"/>
		<stop  offset="0.15" style="stop-color:#E21937"/>
		<stop  offset="0.65" style="stop-color:#804082"/>
		<stop  offset="1" style="stop-color:#005E9C"/>
	</linearGradient>
	<rect x="122.077" y="139.114" clip-path="url(#SVGID_2_)" fill="url(#SVGID_3_)" width="18.745" height="14.494"/>
</g>
<g>
	<defs>
		<polygon id="SVGID_4_" points="155.721,187.286 176.465,187.286 179.321,169.033 158.58,169.033 		"/>
	</defs>
	<clipPath id="SVGID_5_">
		<use xlink:href="#SVGID_4_"  overflow="visible"/>
	</clipPath>
	
		<linearGradient id="SVGID_6_" gradientUnits="userSpaceOnUse" x1="335.3154" y1="199.0942" x2="339.1336" y2="199.0942" gradientTransform="matrix(229.7603 0 0 -229.7603 -76975.625 45922.1016)">
		<stop  offset="0" style="stop-color:#E21937"/>
		<stop  offset="0.15" style="stop-color:#E21937"/>
		<stop  offset="0.65" style="stop-color:#804082"/>
		<stop  offset="1" style="stop-color:#005E9C"/>
	</linearGradient>
	<rect x="155.721" y="169.033" clip-path="url(#SVGID_5_)" fill="url(#SVGID_6_)" width="23.601" height="18.253"/>
</g>
<g>
	<defs>
		<polygon id="SVGID_7_" points="104.579,189.745 121.055,189.745 123.324,175.251 106.85,175.251 		"/>
	</defs>
	<clipPath id="SVGID_8_">
		<use xlink:href="#SVGID_7_"  overflow="visible"/>
	</clipPath>
	
		<linearGradient id="SVGID_9_" gradientUnits="userSpaceOnUse" x1="335.312" y1="199.0815" x2="339.1957" y2="199.0815" gradientTransform="matrix(229.7603 0 0 -229.7603 -76975.75 45923.4766)">
		<stop  offset="0" style="stop-color:#E21937"/>
		<stop  offset="0.15" style="stop-color:#E21937"/>
		<stop  offset="0.65" style="stop-color:#804082"/>
		<stop  offset="1" style="stop-color:#005E9C"/>
	</linearGradient>
	<rect x="104.579" y="175.251" clip-path="url(#SVGID_8_)" fill="url(#SVGID_9_)" width="18.745" height="14.493"/>
</g>
<g>
	<defs>
		<polygon id="SVGID_10_" points="262.346,109.737 239.077,109.737 235.872,130.211 259.139,130.211 		"/>
	</defs>
	<clipPath id="SVGID_11_">
		<use xlink:href="#SVGID_10_"  overflow="visible"/>
	</clipPath>
	
		<linearGradient id="SVGID_12_" gradientUnits="userSpaceOnUse" x1="335.3086" y1="199.2817" x2="339.1775" y2="199.2817" gradientTransform="matrix(229.7603 0 0 -229.7603 -76975.75 45906.9766)">
		<stop  offset="0" style="stop-color:#E21937"/>
		<stop  offset="0.15" style="stop-color:#E21937"/>
		<stop  offset="0.65" style="stop-color:#804082"/>
		<stop  offset="1" style="stop-color:#005E9C"/>
	</linearGradient>
	<rect x="235.872" y="109.737" clip-path="url(#SVGID_11_)" fill="url(#SVGID_12_)" width="26.474" height="20.475"/>
</g>
<g>
	<defs>
		<polygon id="SVGID_13_" points="216.013,182.672 241.252,182.672 244.732,160.463 219.489,160.463 		"/>
	</defs>
	<clipPath id="SVGID_14_">
		<use xlink:href="#SVGID_13_"  overflow="visible"/>
	</clipPath>
	
		<linearGradient id="SVGID_15_" gradientUnits="userSpaceOnUse" x1="335.3071" y1="199.1157" x2="339.1859" y2="199.1157" gradientTransform="matrix(229.7603 0 0 -229.7603 -76975.75 45920.4766)">
		<stop  offset="0" style="stop-color:#E21937"/>
		<stop  offset="0.15" style="stop-color:#E21937"/>
		<stop  offset="0.65" style="stop-color:#804082"/>
		<stop  offset="1" style="stop-color:#005E9C"/>
	</linearGradient>
	<rect x="216.013" y="160.463" clip-path="url(#SVGID_14_)" fill="url(#SVGID_15_)" width="28.719" height="22.209"/>
</g>
<g>
	<defs>
		<polygon id="SVGID_16_" points="191.211,221.997 213.109,221.997 216.127,202.726 194.229,202.726 		"/>
	</defs>
	<clipPath id="SVGID_17_">
		<use xlink:href="#SVGID_16_"  overflow="visible"/>
	</clipPath>
	
		<linearGradient id="SVGID_18_" gradientUnits="userSpaceOnUse" x1="335.3135" y1="198.9849" x2="339.1583" y2="198.9849" gradientTransform="matrix(229.7603 0 0 -229.7603 -76975.75 45931.1016)">
		<stop  offset="0" style="stop-color:#E21937"/>
		<stop  offset="0.15" style="stop-color:#E21937"/>
		<stop  offset="0.65" style="stop-color:#804082"/>
		<stop  offset="1" style="stop-color:#005E9C"/>
	</linearGradient>
	<rect x="191.211" y="202.726" clip-path="url(#SVGID_17_)" fill="url(#SVGID_18_)" width="24.917" height="19.271"/>
</g>
<g>
	<defs>
		<polygon id="SVGID_19_" points="203.25,121.963 181.347,121.963 178.333,141.233 200.232,141.233 		"/>
	</defs>
	<clipPath id="SVGID_20_">
		<use xlink:href="#SVGID_19_"  overflow="visible"/>
	</clipPath>
	
		<linearGradient id="SVGID_21_" gradientUnits="userSpaceOnUse" x1="335.3164" y1="199.2446" x2="339.144" y2="199.2446" gradientTransform="matrix(229.7603 0 0 -229.7603 -76975.75 45909.9766)">
		<stop  offset="0" style="stop-color:#E21937"/>
		<stop  offset="0.15" style="stop-color:#E21937"/>
		<stop  offset="0.65" style="stop-color:#804082"/>
		<stop  offset="1" style="stop-color:#005E9C"/>
	</linearGradient>
	<rect x="178.333" y="121.963" clip-path="url(#SVGID_20_)" fill="url(#SVGID_21_)" width="24.917" height="19.27"/>
</g>
<g>
	<defs>
		<polygon id="SVGID_22_" points="66.565,170.672 75.506,170.672 76.738,162.807 67.801,162.807 		"/>
	</defs>
	<clipPath id="SVGID_23_">
		<use xlink:href="#SVGID_22_"  overflow="visible"/>
	</clipPath>
	
		<linearGradient id="SVGID_24_" gradientUnits="userSpaceOnUse" x1="335.3154" y1="199.1313" x2="339.1071" y2="199.1313" gradientTransform="matrix(229.7603 0 0 -229.7603 -76975.75 45919.2266)">
		<stop  offset="0" style="stop-color:#E21937"/>
		<stop  offset="0.15" style="stop-color:#E21937"/>
		<stop  offset="0.65" style="stop-color:#804082"/>
		<stop  offset="1" style="stop-color:#005E9C"/>
	</linearGradient>
	<rect x="66.565" y="162.807" clip-path="url(#SVGID_23_)" fill="url(#SVGID_24_)" width="10.173" height="7.865"/>
</g>
<g>
	<defs>
		<polygon id="SVGID_25_" points="277.708,140.679 309.89,140.679 315.545,104.557 283.363,104.557 		"/>
	</defs>
	<clipPath id="SVGID_26_">
		<use xlink:href="#SVGID_25_"  overflow="visible"/>
	</clipPath>
	
		<linearGradient id="SVGID_27_" gradientUnits="userSpaceOnUse" x1="335.3135" y1="199.2739" x2="339.1544" y2="199.2739" gradientTransform="matrix(229.7603 0 0 -229.7603 -76975.75 45907.7266)">
		<stop  offset="0" style="stop-color:#E21937"/>
		<stop  offset="0.15" style="stop-color:#E21937"/>
		<stop  offset="0.65" style="stop-color:#804082"/>
		<stop  offset="1" style="stop-color:#005E9C"/>
	</linearGradient>
	<rect x="277.708" y="104.557" clip-path="url(#SVGID_26_)" fill="url(#SVGID_27_)" width="37.837" height="36.123"/>
</g>
<g>
	<defs>
		<polygon id="SVGID_28_" points="266.256,187.409 298.437,187.409 303.491,155.127 271.312,155.127 		"/>
	</defs>
	<clipPath id="SVGID_29_">
		<use xlink:href="#SVGID_28_"  overflow="visible"/>
	</clipPath>
	
		<linearGradient id="SVGID_30_" gradientUnits="userSpaceOnUse" x1="335.3198" y1="199.1167" x2="339.1359" y2="199.1167" gradientTransform="matrix(229.7603 0 0 -229.7603 -76975.75 45920.4766)">
		<stop  offset="0" style="stop-color:#E21937"/>
		<stop  offset="0.15" style="stop-color:#E21937"/>
		<stop  offset="0.65" style="stop-color:#804082"/>
		<stop  offset="1" style="stop-color:#005E9C"/>
	</linearGradient>
	<rect x="266.256" y="155.127" clip-path="url(#SVGID_29_)" fill="url(#SVGID_30_)" width="37.235" height="32.281"/>
</g>
<g>
	<defs>
		<polygon id="SVGID_31_" points="254.755,241.39 297.697,241.39 303.353,205.272 260.412,205.272 		"/>
	</defs>
	<clipPath id="SVGID_32_">
		<use xlink:href="#SVGID_31_"  overflow="visible"/>
	</clipPath>
	
		<linearGradient id="SVGID_33_" gradientUnits="userSpaceOnUse" x1="335.314" y1="198.9497" x2="339.1458" y2="198.9497" gradientTransform="matrix(229.7603 0 0 -229.7603 -76975.875 45934.1016)">
		<stop  offset="0" style="stop-color:#E21937"/>
		<stop  offset="0.15" style="stop-color:#E21937"/>
		<stop  offset="0.65" style="stop-color:#804082"/>
		<stop  offset="1" style="stop-color:#005E9C"/>
	</linearGradient>
	<rect x="254.755" y="205.272" clip-path="url(#SVGID_32_)" fill="url(#SVGID_33_)" width="48.598" height="36.118"/>
</g>
<g>
	<defs>
		<polygon id="SVGID_34_" points="340.598,105.201 319.371,240.75 359.145,240.75 380.371,105.201 		"/>
	</defs>
	<clipPath id="SVGID_35_">
		<use xlink:href="#SVGID_34_"  overflow="visible"/>
	</clipPath>
	
		<linearGradient id="SVGID_36_" gradientUnits="userSpaceOnUse" x1="335.3159" y1="199.1118" x2="339.1469" y2="199.1118" gradientTransform="matrix(229.7603 0 0 -229.7603 -76975.75 45920.9766)">
		<stop  offset="0" style="stop-color:#E21937"/>
		<stop  offset="0.15" style="stop-color:#E21937"/>
		<stop  offset="0.65" style="stop-color:#804082"/>
		<stop  offset="1" style="stop-color:#005E9C"/>
	</linearGradient>
	<rect x="319.371" y="105.201" clip-path="url(#SVGID_35_)" fill="url(#SVGID_36_)" width="61" height="135.55"/>
</g>
<g>
	<defs>
		<polygon id="SVGID_37_" points="391.006,105.339 369.824,240.608 416.852,240.608 438.033,105.339 		"/>
	</defs>
	<clipPath id="SVGID_38_">
		<use xlink:href="#SVGID_37_"  overflow="visible"/>
	</clipPath>
	
		<linearGradient id="SVGID_39_" gradientUnits="userSpaceOnUse" x1="335.3193" y1="199.1118" x2="339.1432" y2="199.1118" gradientTransform="matrix(229.7603 0 0 -229.7603 -76975.75 45920.9766)">
		<stop  offset="0" style="stop-color:#E21937"/>
		<stop  offset="0.15" style="stop-color:#E21937"/>
		<stop  offset="0.65" style="stop-color:#804082"/>
		<stop  offset="1" style="stop-color:#005E9C"/>
	</linearGradient>
	<rect x="369.824" y="105.339" clip-path="url(#SVGID_38_)" fill="url(#SVGID_39_)" width="68.209" height="135.269"/>
</g>
<g>
	<defs>
		<polygon id="SVGID_40_" points="452.388,105.339 431.202,240.608 945.151,240.608 945.151,105.339 		"/>
	</defs>
	<clipPath id="SVGID_41_">
		<use xlink:href="#SVGID_40_"  overflow="visible"/>
	</clipPath>
	
		<linearGradient id="SVGID_42_" gradientUnits="userSpaceOnUse" x1="335.3154" y1="199.1118" x2="339.1489" y2="199.1118" gradientTransform="matrix(229.7603 0 0 -229.7603 -76975.75 45920.9766)">
		<stop  offset="0" style="stop-color:#E21937"/>
		<stop  offset="0.15" style="stop-color:#E21937"/>
		<stop  offset="0.65" style="stop-color:#804082"/>
		<stop  offset="1" style="stop-color:#004990"/>
	</linearGradient>
	<rect x="431.202" y="105.339" clip-path="url(#SVGID_41_)" fill="url(#SVGID_42_)" width="513.949" height="135.269"/>
</g>
<g opacity="0.8">
	<g>
		<defs>
			<rect id="SVGID_43_" x="280.677" y="120.849" width="633.976" height="109.496"/>
		</defs>
		<clipPath id="SVGID_44_">
			<use xlink:href="#SVGID_43_"  overflow="visible"/>
		</clipPath>
		<g clip-path="url(#SVGID_44_)">
			<defs>
				<rect id="SVGID_45_" x="280.677" y="120.849" width="633.976" height="109.496"/>
			</defs>
			<clipPath id="SVGID_46_">
				<use xlink:href="#SVGID_45_"  overflow="visible"/>
			</clipPath>
			<g transform="matrix(1 0 0 1 0 -7.629395e-06)" clip-path="url(#SVGID_46_)">
				
					<image overflow="visible" width="689" height="119" xlink:href="9AFC39979D6AF02B.png"  transform="matrix(0.9201 0 0 0.9201 280.6768 120.8491)">
				</image>
			</g>
		</g>
	</g>
</g>
<path fill="#FFFFFF" d="M285.156,220.623l14.278-95.292h39.52c13.149,0,22.631,1.896,28.423,5.712
	c5.816,3.808,8.739,9.929,8.739,18.387c0,5.437-1.067,10.012-3.179,13.778c-2.104,3.763-5.395,6.848-9.83,9.296
	c3.808,1.647,6.725,4.134,8.821,7.47c2.055,3.373,3.105,7.219,3.105,11.592c0,9.629-3.183,16.912-9.534,21.76
	c-6.365,4.883-15.837,7.298-28.458,7.298H285.156z M317.745,198.536h14.911c4.856,0,8.407-0.786,10.596-2.34
	c2.194-1.527,3.298-4.084,3.298-7.529c0-2.957-0.979-5.073-2.922-6.357c-1.975-1.28-5.359-1.917-10.182-1.917h-13.052
	L317.745,198.536z M322.69,163.458h12.486c4.579,0,7.898-0.693,9.931-2.172c1.994-1.434,3.041-3.8,3.041-7.065
	c0-2.732-0.929-4.665-2.754-5.776c-1.833-1.094-5.455-1.647-10.861-1.647h-9.055L322.69,163.458z"/>
<polygon fill="#FFFFFF" points="378.379,220.623 392.937,125.331 466.582,125.331 463.085,148.002 419.195,148.002 417.067,161.095 
	456.13,161.095 452.727,182.287 413.763,182.287 411.735,197.555 458.504,197.555 455.245,220.623 "/>
<polygon fill="#FFFFFF" points="486.888,220.623 497.382,149.556 470.324,149.556 474.345,125.331 557.561,125.331 553.412,149.556 
	527.586,149.556 517.26,220.623 "/>
<polygon fill="#FFFFFF" points="551.038,220.623 565.453,125.331 632.456,125.331 628.765,148.676 591.714,148.676 589.31,163.735 
	620.797,163.735 617.248,186.42 585.963,186.42 580.968,220.623 "/>
<path fill="#FFFFFF" d="M626.795,220.623l14.183-95.292h44.12c12.311,0,21.296,2.046,26.965,6.172
	c5.706,4.126,8.551,10.573,8.551,19.428c0,6.354-1.542,11.835-4.62,16.381c-3.085,4.56-7.593,8.121-13.538,10.686
	c4.23,1.609,7.219,3.751,9.03,6.297c1.798,2.562,2.696,5.961,2.696,10.229c0,0.914-0.016,1.869-0.075,2.902
	c-0.067,1.019-0.157,2.07-0.284,3.183l-1.041,9.675c-0.12,0.887-0.202,1.553-0.239,1.942c0,0.427-0.022,0.827-0.022,1.221
	c0,1.221,0.231,2.235,0.733,2.991c0.449,0.738,1.205,1.318,2.209,1.723v2.464h-32.161c-0.173-0.61-0.277-1.277-0.353-1.978
	c-0.045-0.715-0.097-1.475-0.097-2.313c0-0.543,0.052-1.247,0.097-2.127c0.075-0.864,0.173-1.901,0.292-3.1l1.349-9.593
	c0.082-0.564,0.142-1.156,0.187-1.726c0.038-0.625,0.053-1.423,0.053-2.448c0-4.07-1.139-6.927-3.46-8.566
	c-2.299-1.644-6.35-2.456-12.168-2.456h-7.803l-5.219,34.307H626.795z M664.266,166.015h14.527c4.567,0,7.922-0.764,10.079-2.37
	c2.171-1.572,3.249-4.051,3.249-7.417c0-2.894-0.943-5.013-2.838-6.278c-1.909-1.325-5.01-1.951-9.322-1.951h-12.88L664.266,166.015
	z"/>
<polygon fill="#FFFFFF" points="723.092,220.623 737.649,125.331 811.302,125.331 807.798,148.002 763.902,148.002 761.775,161.095 
	800.849,161.095 797.435,182.287 758.474,182.287 756.475,197.555 803.207,197.555 799.95,220.623 "/>
<path fill="#FFFFFF" d="M808.876,220.623l14.152-95.296h37.89c9.57,0,16.961,1.075,22.232,3.214
	c5.264,2.171,9.869,5.83,13.793,11.007c2.636,3.468,4.65,7.638,6.088,12.535c1.4,4.871,2.111,10.195,2.111,15.924
	c0,17.039-4.485,30.072-13.448,39.095c-8.963,9.005-21.918,13.521-38.871,13.521H808.876z M842.497,196.967h7.024
	c4.785,0,8.438-0.378,10.872-1.112c2.494-0.711,4.681-1.977,6.598-3.743c2.262-2.119,4.155-5.444,5.601-9.854
	c1.483-4.389,2.209-9.109,2.209-14.123c0-7.17-1.385-12.228-4.163-15.159c-2.733-2.928-7.495-4.381-14.279-4.381h-6.837
	L842.497,196.967z"/>
<polygon fill="#FFFFFF" points="14.375,105.479 22.461,101.814 39.622,117.893 39.695,94.008 47.804,90.331 47.57,142.357 
	39.395,146.063 39.588,129.234 "/>
<path fill="#FFFFFF" d="M68.707,81.417c3.056-1.155,6.219-1.473,9.486-0.958c3.267,0.513,6.149,1.797,8.645,3.849
	c2.495,2.052,4.317,4.598,5.462,7.634c1.155,3.056,1.473,6.198,0.958,9.436c-0.517,3.231-1.801,6.091-3.856,8.575
	c-2.055,2.488-4.661,4.328-7.817,5.517c-4.646,1.752-9.235,1.595-13.767-0.472c-4.532-2.063-7.687-5.459-9.471-10.182
	c-1.91-5.065-1.644-9.979,0.797-14.757C61.292,85.895,64.479,83.012,68.707,81.417 M71.729,89.019
	c-2.527,0.955-4.298,2.626-5.314,5.015c-1.019,2.392-1.011,4.957,0.024,7.694c1.062,2.817,2.752,4.789,5.071,5.908
	c2.319,1.123,4.751,1.204,7.297,0.241c2.544-0.958,4.332-2.641,5.356-5.045c1.022-2.403,1.011-4.996-0.039-7.774
	c-1.046-2.78-2.729-4.725-5.045-5.837C76.763,88.115,74.312,88.045,71.729,89.019"/>
<path fill="#FFFFFF" d="M94.065,73.152l8.377-2.646l5.023,15.899c0.977,3.098,1.87,5.18,2.675,6.245
	c0.805,1.074,1.788,1.791,2.941,2.158c1.155,0.373,2.418,0.337,3.8-0.096c1.38-0.436,2.445-1.134,3.201-2.097
	c0.754-0.962,1.165-2.154,1.227-3.573c0.046-1.062-0.421-3.151-1.408-6.264l-5.11-16.176l8.286-2.619l4.421,13.99
	c1.82,5.768,2.61,9.858,2.372,12.269c-0.294,2.941-1.307,5.444-3.033,7.514c-1.728,2.071-4.259,3.632-7.599,4.689
	c-3.619,1.142-6.805,1.258-9.549,0.345c-2.75-0.912-5.034-2.668-6.859-5.275c-1.281-1.797-2.754-5.341-4.422-10.62L94.065,73.152z"
	/>
<path fill="#FFFFFF" d="M129.318,48.42l7.733-2.132l1.165,4.225c0.745,2.696,1.046,5.103,0.921,7.228
	c-0.131,2.123-0.698,4.431-1.708,6.926l-3.652-1.522c0.451-1.307,0.747-2.415,0.882-3.319c0.139-0.904,0.195-2.063,0.176-3.486
	l-3.099,0.855L129.318,48.42z"/>
<polygon fill="#FFFFFF" points="146.241,43.851 154.663,41.718 166.427,88.248 158.003,90.38 "/>
<rect x="167.43" y="38.312" transform="matrix(-0.9741 0.2259 -0.2259 -0.9741 353.1859 84.1969)" fill="#FFFFFF" width="8.691" height="47.993"/>
<polygon fill="#FFFFFF" points="196.771,32.467 205.312,30.868 214.138,78.042 205.601,79.64 "/>
<path fill="#FFFFFF" d="M232.225,39.062c3.233-0.483,6.392-0.131,9.479,1.058c3.081,1.189,5.627,3.053,7.64,5.583
	c2.011,2.531,3.251,5.403,3.731,8.615c0.487,3.229,0.135,6.372-1.046,9.423c-1.189,3.052-3.044,5.575-5.579,7.576
	c-2.534,1.998-5.466,3.248-8.802,3.746c-4.912,0.736-9.362-0.384-13.357-3.358c-3.995-2.975-6.369-6.958-7.116-11.955
	c-0.801-5.349,0.494-10.102,3.883-14.254C224.037,41.872,227.754,39.729,232.225,39.062 M233.578,47.128
	c-2.667,0.399-4.753,1.661-6.249,3.784c-1.5,2.125-2.033,4.631-1.599,7.527c0.444,2.979,1.683,5.26,3.714,6.842
	c2.033,1.583,4.394,2.179,7.085,1.776c2.688-0.402,4.789-1.672,6.296-3.808s2.039-4.671,1.599-7.61
	c-0.438-2.937-1.672-5.191-3.705-6.764C238.689,47.301,236.312,46.719,233.578,47.128"/>
<polygon fill="#FFFFFF" points="255.094,36.669 263.899,35.803 274.6,55.283 281.294,34.098 290.059,33.238 278.776,69.134 
	273.17,69.687 "/>
<path fill="#FFFFFF" d="M331.884,51.017l-27.88,1.292c0.513,2.438,1.683,4.343,3.495,5.711c1.818,1.372,4.079,1.994,6.793,1.872
	c3.245-0.15,5.978-1.412,8.205-3.789l7.469,3.095c-1.703,2.671-3.796,4.686-6.28,6.043c-2.488,1.357-5.479,2.115-8.975,2.276
	c-5.425,0.249-9.927-1.258-13.495-4.52c-3.57-3.267-5.476-7.473-5.714-12.625c-0.245-5.277,1.254-9.735,4.493-13.381
	c3.244-3.643,7.426-5.583,12.558-5.82c5.443-0.252,9.955,1.284,13.529,4.617c3.574,3.328,5.491,7.851,5.754,13.576L331.884,51.017z
	 M322.889,44.583c-0.663-1.902-1.866-3.416-3.607-4.547c-1.744-1.131-3.734-1.644-5.962-1.541c-2.419,0.111-4.508,0.89-6.271,2.331
	c-1.108,0.896-2.103,2.443-2.98,4.627L322.889,44.583z"/>
<path fill="#FFFFFF" d="M382.533,30.215l8.688-0.11l0.443,34.623l-8.686,0.112l-0.047-3.658c-1.675,1.632-3.362,2.813-5.056,3.545
	c-1.698,0.734-3.544,1.112-5.532,1.14c-4.471,0.056-8.363-1.631-11.672-5.055c-3.308-3.426-4.991-7.716-5.06-12.874
	c-0.069-5.344,1.453-9.746,4.566-13.199c3.113-3.458,6.929-5.214,11.44-5.272c2.078-0.026,4.031,0.337,5.867,1.101
	c1.833,0.758,3.531,1.917,5.1,3.465L382.533,30.215z M373.494,37.461c-2.688,0.036-4.903,1.013-6.655,2.938
	c-1.752,1.92-2.611,4.367-2.574,7.334c0.043,2.99,0.975,5.44,2.808,7.35c1.831,1.906,4.072,2.84,6.717,2.81
	c2.726-0.039,4.976-1.016,6.747-2.937s2.638-4.42,2.6-7.496c-0.039-3.012-0.966-5.444-2.788-7.284
	C378.523,38.332,376.242,37.428,373.494,37.461"/>
<path fill="#FFFFFF" d="M427.404,16.768l-0.124,17.187c1.58-1.561,3.286-2.726,5.115-3.497c1.833-0.775,3.787-1.149,5.865-1.135
	c4.521,0.03,8.348,1.767,11.483,5.206c3.135,3.439,4.686,7.829,4.646,13.177c-0.034,5.152-1.702,9.454-4.991,12.9
	c-3.293,3.444-7.177,5.153-11.655,5.12c-1.994-0.017-3.845-0.384-5.563-1.108c-1.709-0.721-3.411-1.895-5.094-3.52l-0.028,3.656
	l-8.626-0.06l0.35-47.989L427.404,16.768z M436.39,37.329c-2.737-0.019-5.015,0.896-6.833,2.748
	c-1.815,1.857-2.737,4.291-2.755,7.305c-0.022,3.074,0.863,5.571,2.649,7.48c1.792,1.912,4.057,2.879,6.79,2.898
	c2.652,0.019,4.892-0.932,6.72-2.849c1.829-1.917,2.754-4.371,2.776-7.361c0.019-2.971-0.855-5.414-2.623-7.327
	C441.347,38.313,439.104,37.347,436.39,37.329"/>
<path fill="#FFFFFF" d="M465.449,16.259c1.522,0.024,2.821,0.595,3.896,1.711c1.073,1.119,1.599,2.463,1.575,4.032
	c-0.022,1.55-0.579,2.86-1.676,3.94c-1.091,1.075-2.392,1.604-3.89,1.58c-1.546-0.022-2.853-0.593-3.931-1.724
	c-1.073-1.133-1.599-2.49-1.57-4.079c0.019-1.531,0.575-2.827,1.671-3.892C462.619,16.763,463.927,16.236,465.449,16.259
	 M460.902,30.453l8.688,0.125l-0.5,34.621l-8.686-0.127L460.902,30.453z"/>
<polygon fill="#FFFFFF" points="478.911,17.966 487.599,18.127 487.367,30.883 492.519,30.979 492.384,38.456 487.232,38.362 
	486.738,65.502 478.048,65.345 478.542,38.201 474.089,38.121 474.222,30.646 478.677,30.726 "/>
<path fill="#FFFFFF" d="M531.839,31.035c3.265,0.092,6.312,0.992,9.143,2.702c2.831,1.714,5.01,3.991,6.545,6.836
	s2.262,5.89,2.172,9.132c-0.091,3.267-0.989,6.295-2.681,9.094c-1.708,2.799-3.977,4.957-6.822,6.483
	c-2.846,1.522-5.953,2.239-9.322,2.147c-4.965-0.133-9.15-2.016-12.565-5.646c-3.414-3.628-5.047-7.963-4.912-13.012
	c0.149-5.407,2.254-9.862,6.32-13.359C523.279,32.372,527.323,30.911,531.839,31.035 M531.756,39.215
	c-2.695-0.077-4.964,0.801-6.813,2.63s-2.809,4.207-2.891,7.13c-0.082,3.014,0.733,5.476,2.456,7.393
	c1.723,1.913,3.946,2.905,6.664,2.982c2.719,0.073,5.01-0.805,6.867-2.645c1.856-1.836,2.83-4.24,2.905-7.208
	c0.082-2.971-0.733-5.41-2.456-7.312C536.766,40.281,534.52,39.292,531.756,39.215"/>
<path fill="#FFFFFF" d="M552.94,32.8l3.085,0.003c0.029-4.543,0.112-7.222,0.232-8.051c0.239-1.91,1.04-3.418,2.411-4.53
	c1.37-1.112,3.302-1.668,5.811-1.665c1.805,0,3.834,0.414,6.118,1.241l-0.023,6.622c-1.25-0.359-2.276-0.545-3.085-0.545
	c-1.019,0-1.76,0.211-2.224,0.637c-0.337,0.318-0.517,0.975-0.51,1.975l-0.037,4.325l5.504,0.003l-0.008,7.354l-5.504-0.004
	l-0.021,27.272l-8.694-0.008l0.022-27.275l-3.085-0.003L552.94,32.8z"/>
<path fill="#FFFFFF" d="M579.523,57.479c1.377,0.051,2.538,0.571,3.481,1.573c0.943,1,1.393,2.188,1.341,3.564
	c-0.053,1.382-0.584,2.539-1.596,3.482c-1.011,0.94-2.201,1.384-3.579,1.335c-1.378-0.05-2.538-0.581-3.481-1.587
	c-0.937-1.013-1.386-2.205-1.333-3.581c0.045-1.38,0.576-2.535,1.587-3.461C576.954,57.87,578.146,57.429,579.523,57.479"/>
<path fill="#FFFFFF" d="M597.741,57.479c1.378,0.054,2.539,0.582,3.475,1.584c0.943,1,1.386,2.192,1.333,3.57
	c-0.06,1.379-0.592,2.537-1.603,3.473c-1.011,0.939-2.209,1.379-3.587,1.327c-1.378-0.05-2.538-0.588-3.475-1.599
	c-0.936-1.013-1.377-2.209-1.325-3.585c0.053-1.38,0.584-2.535,1.603-3.459C595.173,57.863,596.363,57.425,597.741,57.479"/>
<path fill="#FFFFFF" d="M615.93,57.481c1.378,0.058,2.531,0.586,3.468,1.595c0.936,1.005,1.37,2.198,1.317,3.574
	c-0.06,1.38-0.599,2.535-1.617,3.469c-1.011,0.932-2.209,1.372-3.587,1.316c-1.378-0.058-2.531-0.599-3.467-1.61
	c-0.937-1.017-1.37-2.213-1.318-3.593c0.061-1.377,0.6-2.527,1.618-3.456C613.354,57.857,614.553,57.423,615.93,57.481"/>
</svg>
